<?xml version="1.0" encoding="UTF-8" standalone="no"?>
<!-- Created with Inkscape (http://www.inkscape.org/) -->

<svg
   xmlns:dc="http://purl.org/dc/elements/1.1/"
   xmlns:cc="http://creativecommons.org/ns#"
   xmlns:rdf="http://www.w3.org/1999/02/22-rdf-syntax-ns#"
   xmlns:svg="http://www.w3.org/2000/svg"
   xmlns="http://www.w3.org/2000/svg"
   xmlns:sodipodi="http://sodipodi.sourceforge.net/DTD/sodipodi-0.dtd"
   xmlns:inkscape="http://www.inkscape.org/namespaces/inkscape"
   width="931.17303"
   height="58.145088"
   viewBox="0 0 931.17306 58.145087"
   id="svg85299"
   version="1.1"
   inkscape:version="0.91 r13725"
   sodipodi:docname="logo-rust.svg">
  <defs
     id="defs85301" />
  <sodipodi:namedview
     id="base"
     pagecolor="#ffffff"
     bordercolor="#666666"
     borderopacity="1.0"
     inkscape:pageopacity="0.0"
     inkscape:pageshadow="2"
     inkscape:zoom="2.7866258"
     inkscape:cx="605.09453"
     inkscape:cy="-66.372596"
     inkscape:document-units="px"
     inkscape:current-layer="layer1"
     showgrid="false"
     fit-margin-top="0"
     fit-margin-left="0"
     fit-margin-right="0"
     fit-margin-bottom="0"
     showborder="true"
     units="px"
     inkscape:window-width="1596"
     inkscape:window-height="864"
     inkscape:window-x="0"
     inkscape:window-y="16"
     inkscape:window-maximized="0" />
  <metadata
     id="metadata85304">
    <rdf:RDF>
      <cc:Work
         rdf:about="">
        <dc:format>image/svg+xml</dc:format>
        <dc:type
           rdf:resource="http://purl.org/dc/dcmitype/StillImage" />
        <dc:title></dc:title>
      </cc:Work>
    </rdf:RDF>
  </metadata>
  <g
     inkscape:label="Layer 1"
     inkscape:groupmode="layer"
     id="layer1"
     transform="translate(188.44368,-486.14679)">
    <g
       style="font-style:normal;font-variant:normal;font-weight:normal;font-stretch:normal;font-size:96.83621979px;line-height:125%;font-family:Ubuntu;-inkscape-font-specification:Ubuntu;letter-spacing:0.01613935px;word-spacing:-0.01613935px;display:inline;fill:#9e623d;fill-opacity:1;stroke:none;stroke-width:1px;stroke-linecap:butt;stroke-linejoin:miter;stroke-opacity:1"
       id="text3691">
      <path
         d="m -103.93901,522.05679 c 0,12.53 4.200005,16.59 14.140005,16.59 8.68,0 14.35,-4.62 14.35,-15.47 l 0,-35.84 -6.72,0 0,36.26 c 0,5.88 -2.1,9.03 -7.77,9.03 -4.97,0 -7.28,-1.54 -7.28,-10.57 l -6.720005,0 z"
         style="font-style:normal;font-variant:normal;font-weight:normal;font-stretch:normal;font-size:70px;font-family:'Foobar Pro';-inkscape-font-specification:'Foobar Pro';text-align:center;letter-spacing:30px;word-spacing:0px;text-anchor:middle;fill:#9e623d;fill-opacity:1"
         id="path166429" />
      <path
         d="m -22.806193,516.80679 c 0,0 -1.82,5.88 -1.82,5.88 l 17.0100004,0 c 1.68,4.97 3.22,9.94 4.69,14.84 l 7.42,0 c -5.25000003,-16.73 -11.55,-33.46 -18.9700004,-50.19 l -7.49,0 c -7.49,16.66 -13.79,33.39 -19.04,50.19 l 7,0 c 4.06,-15.12 9.38,-29.54 15.61,-43.47 3.15,7.63 6.09,15.12 8.7500004,22.75 l -13.1600004,0 z"
         style="font-style:normal;font-variant:normal;font-weight:normal;font-stretch:normal;font-size:70px;font-family:'Foobar Pro';-inkscape-font-specification:'Foobar Pro';text-align:center;letter-spacing:30px;word-spacing:0px;text-anchor:middle;fill:#9e623d;fill-opacity:1"
         id="path166431" />
      <path
         d="m 53.95162,516.80679 c 0,0 -1.82,5.88 -1.82,5.88 l 17.01,0 c 1.68,4.97 3.22,9.94 4.69,14.84 l 7.42,0 c -5.25,-16.73 -11.55,-33.46 -18.97,-50.19 l -7.49,0 c -7.49,16.66 -13.79,33.39 -19.04,50.19 l 7,0 c 4.06,-15.12 9.38,-29.54 15.61,-43.47 3.15,7.63 6.09,15.12 8.75,22.75 l -13.16,0 z"
         style="font-style:normal;font-variant:normal;font-weight:normal;font-stretch:normal;font-size:70px;font-family:'Foobar Pro';-inkscape-font-specification:'Foobar Pro';text-align:center;letter-spacing:30px;word-spacing:0px;text-anchor:middle;fill:#9e623d;fill-opacity:1"
         id="path166433" />
      <path
         d="m 124.40943,493.21679 15.61,0 c 6.72,0 10.64,0.84 10.64,7.98 0,7.7 -3.22,8.89 -10.78,8.89 l -10.57,0 0,5.88 8.05,0 14.91,21.56 8.33,0 -15.33,-21.98 c 7.63,-0.91 12.32,-4.2 12.32,-14.42 0,-12.6 -9.17,-13.79 -20.16,-13.79 l -19.74,0 0,50.19 6.72,0 0,-44.31 z"
         style="font-style:normal;font-variant:normal;font-weight:normal;font-stretch:normal;font-size:70px;font-family:'Foobar Pro';-inkscape-font-specification:'Foobar Pro';text-align:center;letter-spacing:30px;word-spacing:0px;text-anchor:middle;fill:#9e623d;fill-opacity:1"
         id="path166435" />
      <path
         d="m 432.19162,501.82679 c -0.21,-7.56 -3.22,-15.61 -18.9,-15.61 -13.44,0 -18.13,5.95 -18.13,14.35 0,7.42 3.64,10.78 10.71,12.53 l 12.46,3.01 c 7.28,1.75 8.47,3.5 8.47,7.56 0,7.84 -4.76,8.96 -12.32,8.96 -9.03,0 -13.93,-1.68 -14.28,-11.27 l -6.72,0 c 0.21,13.44 8.75,17.29 20.44,17.29 10.92,0 19.6,-3.36 19.6,-15.05 0,-7.63 -3.78,-11.55 -11.9,-13.51 l -13.65,-3.36 c -3.85,-0.98 -6.09,-2.03 -6.09,-6.37 0,-7.56 5.04,-8.12 10.99,-8.12 7.98,0 12.04,1.19 12.6,9.59 l 6.72,0 z"
         style="font-style:normal;font-variant:normal;font-weight:normal;font-stretch:normal;font-size:70px;font-family:'Foobar Pro';-inkscape-font-specification:'Foobar Pro';text-align:center;letter-spacing:30px;word-spacing:0px;text-anchor:middle;fill:#9e623d;fill-opacity:1"
         id="path166437" />
      <path
         d="m 485.70943,516.80679 c 0,0 -1.82,5.88 -1.82,5.88 l 17.01,0 c 1.68,4.97 3.22,9.94 4.69,14.84 l 7.42,0 c -5.25,-16.73 -11.55,-33.46 -18.97,-50.19 l -7.49,0 c -7.49,16.66 -13.79,33.39 -19.04,50.19 l 7,0 c 4.06,-15.12 9.38,-29.54 15.61,-43.47 3.15,7.63 6.09,15.12 8.75,22.75 l -13.16,0 z"
         style="font-style:normal;font-variant:normal;font-weight:normal;font-stretch:normal;font-size:70px;font-family:'Foobar Pro';-inkscape-font-specification:'Foobar Pro';text-align:center;letter-spacing:30px;word-spacing:0px;text-anchor:middle;fill:#9e623d;fill-opacity:1"
         id="path166439" />
      <path
         d="m 580.94724,537.52679 0,-6.02 -25.27,0 0,-44.17 -6.72,0 0,50.19 31.99,0 z"
         style="font-style:normal;font-variant:normal;font-weight:normal;font-stretch:normal;font-size:70px;font-family:'Foobar Pro';-inkscape-font-specification:'Foobar Pro';text-align:center;letter-spacing:30px;word-spacing:0px;text-anchor:middle;fill:#9e623d;fill-opacity:1"
         id="path166441" />
      <path
         d="m 655.21131,512.46679 c 0,13.93 -4.76,20.23 -17.36,20.23 -12.67,0 -17.36,-6.44 -17.36,-20.3 0,-14 4.83,-20.23 17.36,-20.23 12.39,0 17.36,6.09 17.36,20.3 z m 6.93,-0.07 c 0,-14.07 -5.11,-26.25 -24.36,-26.25 -18.9,0 -24.22,11.76 -24.22,26.18 0,14.07 5.04,26.39 24.29,26.39 18.9,0 24.29,-11.83 24.29,-26.32 z"
         style="font-style:normal;font-variant:normal;font-weight:normal;font-stretch:normal;font-size:70px;font-family:'Foobar Pro';-inkscape-font-specification:'Foobar Pro';text-align:center;letter-spacing:30px;word-spacing:0px;text-anchor:middle;fill:#9e623d;fill-opacity:1"
         id="path166443" />
    </g>
    <path
       sodipodi:nodetypes="cc"
       inkscape:connector-curvature="0"
       id="path4986"
       d="m -188.44368,543.40514 931.17307,0"
       style="fill:#9e623d;fill-rule:evenodd;stroke:#9e623d;stroke-width:1.77347803px;stroke-linecap:butt;stroke-linejoin:miter;stroke-opacity:1;fill-opacity:1" />
    <path
       sodipodi:nodetypes="ccccccccccccccccccccccc"
       inkscape:connector-curvature="0"
       id="path4988"
       d="m 233.43189,542.76721 0,-7.21927 16.82237,-4.56463 1.48597,4.56463 15.38463,-4.56463 1.48684,4.56463 14.85555,-4.56463 1.59098,4.56463 1.63418,0 -0.046,-0.91118 1.36623,-4.48192 3.09544,-4.48191 4.3177,-3.92797 4.89411,-1.91053 4.67498,0 4.95881,2.06577 3.806,3.79501 2.73325,4.32666 1.58046,4.61489 0,-26.70993 1.88825,0 0,35.40992 z"
       style="fill:#9e623d;fill-opacity:1;fill-rule:evenodd;stroke:none;stroke-width:1px;stroke-linecap:butt;stroke-linejoin:miter;stroke-opacity:1" />
  </g>
</svg>
