<?xml version="1.0" encoding="UTF-8" standalone="no"?>
<!-- Created with Inkscape (http://www.inkscape.org/) -->

<svg
   xmlns:dc="http://purl.org/dc/elements/1.1/"
   xmlns:cc="http://creativecommons.org/ns#"
   xmlns:rdf="http://www.w3.org/1999/02/22-rdf-syntax-ns#"
   xmlns:svg="http://www.w3.org/2000/svg"
   xmlns="http://www.w3.org/2000/svg"
   xmlns:sodipodi="http://sodipodi.sourceforge.net/DTD/sodipodi-0.dtd"
   xmlns:inkscape="http://www.inkscape.org/namespaces/inkscape"
   width="83.091431"
   height="105.41081"
   viewBox="0 0 83.091433 105.41081"
   id="svg167974"
   version="1.1"
   inkscape:version="0.91 r13725"
   sodipodi:docname="menu.svg">
  <defs
     id="defs167976" />
  <sodipodi:namedview
     id="base"
     pagecolor="#ffffff"
     bordercolor="#666666"
     borderopacity="1.0"
     inkscape:pageopacity="0.0"
     inkscape:pageshadow="2"
     inkscape:zoom="2.8"
     inkscape:cx="85.457918"
     inkscape:cy="66.951202"
     inkscape:document-units="px"
     inkscape:current-layer="layer1"
     showgrid="false"
     inkscape:window-width="1596"
     inkscape:window-height="864"
     inkscape:window-x="0"
     inkscape:window-y="16"
     inkscape:window-maximized="0"
     fit-margin-top="0"
     fit-margin-left="0"
     fit-margin-right="0"
     fit-margin-bottom="0"
     units="px" />
  <metadata
     id="metadata167979">
    <rdf:RDF>
      <cc:Work
         rdf:about="">
        <dc:format>image/svg+xml</dc:format>
        <dc:type
           rdf:resource="http://purl.org/dc/dcmitype/StillImage" />
        <dc:title></dc:title>
      </cc:Work>
    </rdf:RDF>
  </metadata>
  <g
     inkscape:label="Layer 1"
     inkscape:groupmode="layer"
     id="layer1"
     transform="translate(-195.3775,-294.74744)">
    <rect
       style="opacity:1;fill:none;fill-opacity:1;stroke:#53b375;stroke-width:7;stroke-linecap:round;stroke-linejoin:miter;stroke-miterlimit:4;stroke-dasharray:none;stroke-dashoffset:2.27999926;stroke-opacity:1"
       id="rect249072"
       width="75.650734"
       height="73.670097"
       x="198.8775"
       y="298.24744"
       ry="17.857143"
       rx="17.857143" />
    <g
       style="font-style:normal;font-weight:normal;font-size:40px;line-height:125%;font-family:sans-serif;letter-spacing:0px;word-spacing:0px;fill:#416555;fill-opacity:1;stroke:none;stroke-width:1px;stroke-linecap:butt;stroke-linejoin:miter;stroke-opacity:1"
       id="text249108">
      <path
         d="m 209.36963,388.78325 c 0,-3.465 1.295,-5.145 4.48,-5.145 2.59,0 3.22,1.12 3.22,4.375 l 0,11.69 3.08,0 0,-12.565 c 0,-4.795 -2.205,-6.16 -5.635,-6.16 -2.73,0 -4.13,0.875 -5.635,2.695 -0.63,-1.365 -1.96,-2.695 -4.9,-2.695 -3.01,0 -4.69,1.4 -5.635,2.73 l 0,-2.24 -2.835,0 0,18.235 3.08,0 0,-9.765 c 0,-5.145 1.995,-6.3 4.585,-6.3 2.485,0 3.115,1.085 3.115,3.71 l 0,12.355 3.08,0 0,-10.92 z"
         style="font-style:normal;font-variant:normal;font-weight:normal;font-stretch:normal;font-size:35px;font-family:'Foobar Pro';-inkscape-font-specification:'Foobar Pro';fill:#416555;fill-opacity:1"
         id="path249136" />
      <path
         d="m 232.50409,397.49825 c -4.165,0 -5.46,-1.715 -5.46,-6.755 0,-5.67 1.47,-7.105 5.32,-7.105 3.85,0 4.655,2.03 4.9,5.285 l -7.77,0 c 0,0 0,2.59 0,2.59 l 10.92,0 c 0,-7.14 -2.03,-10.535 -8.015,-10.535 -6.23,0 -8.575,3.64 -8.575,9.905 0,6.195 2.31,9.275 8.435,9.275 6.3,0 7.735,-3.255 8.015,-6.09 l -3.115,0 c -0.35,2.695 -1.855,3.43 -4.655,3.43 z"
         style="font-style:normal;font-variant:normal;font-weight:normal;font-stretch:normal;font-size:35px;font-family:'Foobar Pro';-inkscape-font-specification:'Foobar Pro';fill:#416555;fill-opacity:1"
         id="path249138" />
      <path
         d="m 247.05151,381.46825 -2.835,0 0,18.235 3.08,0 0,-9.94 c 0,-5.18 1.995,-6.125 4.865,-6.125 3.43,0 3.815,1.33 3.815,4.9 l 0,11.165 3.08,0 0,-12.005 c 0,-4.795 -1.925,-6.72 -6.02,-6.72 -3.36,0 -4.935,1.295 -5.985,2.73 l 0,-2.24 z"
         style="font-style:normal;font-variant:normal;font-weight:normal;font-stretch:normal;font-size:35px;font-family:'Foobar Pro';-inkscape-font-specification:'Foobar Pro';fill:#416555;fill-opacity:1"
         id="path249140" />
      <path
         d="m 275.38893,391.40825 c 0,4.2 -1.295,6.09 -5.18,6.09 -2.485,0 -3.395,-0.735 -3.395,-4.095 l 0,-11.935 -3.08,0 0,13.09 c 0.105,4.55 2.45,5.6 5.915,5.6 2.94,0 4.585,-0.77 5.95,-2.765 l 0,2.31 2.87,0 0,-18.235 -3.08,0 0,9.94 z"
         style="font-style:normal;font-variant:normal;font-weight:normal;font-stretch:normal;font-size:35px;font-family:'Foobar Pro';-inkscape-font-specification:'Foobar Pro';fill:#416555;fill-opacity:1"
         id="path249142" />
    </g>
    <path
       style="fill:#53b375;fill-opacity:1;fill-rule:evenodd;stroke:#53b375;stroke-width:8;stroke-linecap:butt;stroke-linejoin:miter;stroke-miterlimit:4;stroke-dasharray:none;stroke-opacity:1"
       d="m 213.68919,318.27468 45.71428,0"
       id="path249112"
       inkscape:connector-curvature="0" />
    <path
       style="fill:#53b375;fill-opacity:1;fill-rule:evenodd;stroke:#53b375;stroke-width:8;stroke-linecap:butt;stroke-linejoin:miter;stroke-miterlimit:4;stroke-dasharray:none;stroke-opacity:1"
       d="m 213.68918,352.95755 45.71429,0"
       id="path249112-9"
       inkscape:connector-curvature="0" />
    <path
       style="fill:#53b375;fill-opacity:1;fill-rule:evenodd;stroke:#53b375;stroke-width:8;stroke-linecap:butt;stroke-linejoin:miter;stroke-miterlimit:4;stroke-dasharray:none;stroke-opacity:1"
       d="m 213.68919,335.61612 45.71428,0"
       id="path249112-3"
       inkscape:connector-curvature="0" />
  </g>
</svg>
